<svg id="Capa_1" data-name="Capa 1" xmlns="http://www.w3.org/2000/svg" viewBox="0 0 252.6 300.58"><defs><style>.cls-1{fill:#d0a44b;isolation:isolate;}</style></defs><title>logo(mini)2-0</title><path class="cls-1" d="M263.53,125.58c-8.94,20.79-9.64,42.43-9.64,42.43a115.1,115.1,0,0,0,3.86,32.79,135,135,0,0,0,18.64,43.07,125.88,125.88,0,0,0,18.43,21.43c7,6.54,15.91,14.79,29.14,20.14,4.71,1.91,16.29,6,16.29,6l.42,55.29h25.72V244.94a166.86,166.86,0,0,1-28.07-.21c-4.56-.56-9.65-1.72-9.65-1.72a31.49,31.49,0,0,1-5.35-1.5,35.18,35.18,0,0,1-7.5-4.5,31.94,31.94,0,0,1-4.07-3.21,30,30,0,0,1-3.65-4.29c-.38-.52-1.13-1.58-4.14-6.74-1.37-2.35-2.06-3.52-2.29-4a34.29,34.29,0,0,1-2.78-8.15,38,38,0,0,1-.43-11.57,55.89,55.89,0,0,1,1.71-9.64,42.22,42.22,0,0,1,2.58-7.5,24.13,24.13,0,0,1,3.45-6.05,39,39,0,0,1,4.05-4,39.6,39.6,0,0,1,3.42-3c4.82-3.61,7.41-5.56,11.58-7.29a41.63,41.63,0,0,1,7.92-2.35s2.28-.45,4.72-.65c18.58-1.53,74.54,1,55.93,0,.2,32.9.3,46.8.32,47.57h0s0,.51-27.86.22l.11-19.82-28.82-.43a21.83,21.83,0,0,0-5.25,2.89,17.31,17.31,0,0,0-3.11,2.89,18.09,18.09,0,0,0-1.93,2.9,16.09,16.09,0,0,0-1.39,3.32,13.08,13.08,0,0,0-.32,6.53,15.11,15.11,0,0,0,1.82,4.29,15.55,15.55,0,0,0,3.21,4.61,15.15,15.15,0,0,0,5,2.89h0s1.57.56,3.11,1a24,24,0,0,0,6.09.48c6.28-.35,10.48,1,33.12-.21,8.79-.45,11.89-.83,15.75-2.09a43.55,43.55,0,0,0,10-4.71,45,45,0,0,0,10-8.68,48.7,48.7,0,0,0,7.28-11.68,39.5,39.5,0,0,0,3.65-12.43,51.76,51.76,0,0,0-.11-10.39,54.69,54.69,0,0,0-.75-5.57,39.7,39.7,0,0,0-1.39-5.57,30.16,30.16,0,0,0-4.4-8,47.92,47.92,0,0,0-6.69-7.5,55.51,55.51,0,0,0-9.16-7.18,46.59,46.59,0,0,0-14.68-6.1c-.05,0-.83-.18-1.72-.33-16.47-2.75-72.2-.8-76.69,0h-.13c-2.43-.41.32-27,.32-27q30.58,0,79.71-.42h0a2.35,2.35,0,0,1,.8.13c.53.18,8.13.89,13.74,2.73a42.73,42.73,0,0,1,10.45,5.47c1.25.81,2,1.37,5.87,3.93,4.2,2.79,3.92,2.54,5,3.3a65.25,65.25,0,0,1,7.71,6.59,36.45,36.45,0,0,1,5.06,5.7,52.88,52.88,0,0,1,3.22,5.63c1.48,2.83,1.46,3.13,2.65,5.22,1.57,2.76,1.83,2.63,3,4.82a27.55,27.55,0,0,1,2.33,5.71c.45,1.62.42,2.14,1.13,4.66.47,1.66.6,1.87.88,3a25.71,25.71,0,0,1,.73,5c.57,8.93.53,15.47.4,20.9a18.52,18.52,0,0,1-.89,6.51c-.48,1.32-1,2.13-1.68,4.33a26,26,0,0,1-.89,2.74c-.07.18-.16.39-1.12,2.49-.55,1.19-.83,1.79-1.05,2.25,0,0-.51,1.06-1.12,2.25a123.47,123.47,0,0,1-6.75,11.81,62.87,62.87,0,0,1-6.83,8.36,64.36,64.36,0,0,1-12.14,9.64,67.74,67.74,0,0,1-12.53,6.43,128.36,128.36,0,0,1-13.5,4.1s.08,53.83.08,53.84h0a38.36,38.36,0,0,0,6.75-.51c1.27-.19,2.49-.41,4.93-.86s3.7-.68,4.79-1c1.45-.39,1.7-.54,4.26-1.29,1.75-.51,3-.83,3.46-1,3.56-1,7.55-2.77,10.28-3.78a104.33,104.33,0,0,0,12.46-5.87c4.36-2.25,6.55-3.38,9.32-5.14a93.94,93.94,0,0,0,12.53-9.72c3.92-3.44,6.7-6.26,8.52-8.12a121.49,121.49,0,0,0,8.84-9.72,112.07,112.07,0,0,0,9.11-13.31c3.35-5.59,5.39-9.88,5.89-10.93,1.89-4,3.1-7.2,3.54-8.36,1.36-3.65,2.19-6.58,3.85-12.43,1.19-4.17,1.78-6.25,2.25-8.46a86.83,86.83,0,0,0,1.61-11.25,124.08,124.08,0,0,0-.21-27.22,120.35,120.35,0,0,0-3.86-18.85,125.36,125.36,0,0,0-7.5-19.5,144.39,144.39,0,0,0-10.61-18.86A98.11,98.11,0,0,0,473,87.55a107.48,107.48,0,0,0-10.29-9.43A140.73,140.73,0,0,0,442,63.23a121.71,121.71,0,0,0-25.71-11.15c-8.26-2.44-20.15-4.93-20.15-4.93s-18-2.4-30.75.22c-.8.16-2.25.49-5.57,1.18-4.62,1-6.57,1.32-10.18,2.14-1.18.27-2.39.54-3.64.86a102.24,102.24,0,0,0-12.11,3.85,106.2,106.2,0,0,0-13.82,6.75c-3,1.69-6.69,3.73-11.25,6.86a125.13,125.13,0,0,0-15.1,12.32,135.55,135.55,0,0,0-10.29,11,96.39,96.39,0,0,0-9,11.68A118.15,118.15,0,0,0,268,115.94C265.78,120.48,264.12,124.22,263.53,125.58Z" transform="translate(-253.83 -46.15)"/></svg>